<svg width="31" height="42" viewBox="0 0 31 42" fill="none" xmlns="http://www.w3.org/2000/svg">
<path d="M13.9725 41.0129C2.34565 24.1575 0.1875 22.4276 0.1875 16.233C0.1875 7.74766 7.06614 0.869019 15.5514 0.869019C24.0367 0.869019 30.9154 7.74766 30.9154 16.233C30.9154 22.4276 28.7572 24.1575 17.1304 41.0129C16.3674 42.1151 14.7354 42.115 13.9725 41.0129ZM15.5514 22.6346C19.087 22.6346 21.9531 19.7685 21.9531 16.233C21.9531 12.6974 19.087 9.83131 15.5514 9.83131C12.0159 9.83131 9.1498 12.6974 9.1498 16.233C9.1498 19.7685 12.0159 22.6346 15.5514 22.6346Z" fill="white"/>
</svg>
