<svg width="23" height="32" viewBox="0 0 23 32" fill="none" xmlns="http://www.w3.org/2000/svg">
<path d="M11.0905 0C6.96254 0 3.60657 3.35597 3.60657 7.48397C3.60657 11.5332 6.77347 14.8104 10.9015 14.9522C11.0275 14.9364 11.1536 14.9364 11.2481 14.9522H11.3269H11.3584C15.3918 14.8104 18.5587 11.5332 18.5745 7.48397C18.5745 3.35597 15.2185 0 11.0905 0Z" fill="white"/>
<path d="M19.0959 19.1431C14.7 16.2125 7.53124 16.2125 3.10388 19.1431C1.1029 20.4823 0 22.2942 0 24.2322C0 26.1701 1.1029 27.9663 3.08812 29.2898C5.29392 30.7708 8.19291 31.5113 11.092 31.5113C13.991 31.5113 16.8901 30.7708 19.0959 29.2898C21.0811 27.9505 22.184 26.1544 22.184 24.2007C22.1682 22.2627 21.0811 20.4666 19.0959 19.1431Z" fill="white"/>
</svg>
